<svg style="width:700px;height:1089px" width="1036" height="847" fill="none" xmlns="http://www.w3.org/2000/svg"><path opacity=".1" d="M385.476 1275c-121.903 0-216.624-31.36-284.165-94.08C33.771 1116.55 0 1016.7 0 881.359c0-113.883 22.239-239.32 66.717-376.31 44.478-136.991 116.961-255 217.448-354.03C384.652 50.339 512.32 0 667.169 0c181.207 0 271.81 79.223 271.81 237.67 0 92.427-26.357 177.427-79.072 255-52.714 77.573-122.726 140.291-210.035 188.155-87.308 46.214-180.382 72.622-279.222 79.224-3.295 49.514-4.942 82.524-4.942 99.029 0 80.873 14.002 136.165 42.007 165.872 28.004 28.06 73.306 42.09 135.905 42.09 88.955 0 164.733-20.63 227.331-61.89 64.246-41.267 134.258-103.985 210.035-188.16H1065C882.146 1122.33 655.638 1275 385.476 1275zm4.942-633.786c60.951-3.301 118.608-24.758 172.97-64.369 56.009-39.612 100.487-89.952 133.433-151.02 34.594-61.068 51.891-125.437 51.891-193.107s-20.591-101.504-61.775-101.504c-59.304 0-117.784 51.99-175.44 155.97-56.01 103.981-96.369 221.991-121.079 354.03z" fill="#fff"/></svg>